# xmcd
#
# Track frame offsets:
# 150
# 14219
# 28388
# 44730
# 59426
# 75672
# 90498
# 105945
# 119913
#
# Disc length: 1821 seconds
#
#
# Revision: 0
# Processed by: cddbd v1.5.2PL0 Copyright (c) Steve Scherf et al.
# Submitted via: FreeRIP 2.944 
#
DISCID=7d071b09
DTITLE=Annabelle Road - Annabelle Road
DYEAR=1900
DGENRE=Country
TTITLE0=What Goodbye Looks Like
TTITLE1=Love At First Sight
TTITLE2=Where We Ended Up
TTITLE3=Things I Should've Said
TTITLE4=Baby I'm Gone
TTITLE5=Big Time
TTITLE6=Let You Bleed
TTITLE7=Love Makin' Song
TTITLE8=Don't Look
EXTD=
EXTT0=
EXTT1=
EXTT2=
EXTT3=
EXTT4=
EXTT5=
EXTT6=
EXTT7=
EXTT8=
PLAYORDER=
